<svg xmlns="http://www.w3.org/2000/svg" width="335.24" height="101.124" viewBox="0 0 335.24 101.124">
  <g id="Layer-1" transform="translate(-1038.59 -4557.89)">
    <path id="Path_2" data-name="Path 2" d="M3190.5,4674.6h-8.7v-32.7h19.324v7.089H3190.5v6.24h9.8v7.09h-9.8Z" transform="translate(-2028.276 -68.146)" fill="#25acd8"/>
    <path id="Path_3" data-name="Path 3" d="M3596.478,4658.845l-1.409-5.368q-.491-1.789-1.2-4.629t-.928-4.071q-.2,1.141-.794,3.757t-2.628,10.311Zm3.445,13.375-1.611-6.128h-10.624l-1.654,6.128h-9.708L3587,4639.386h11.787l10.8,32.833Z" transform="translate(-2401.64 -65.769)" fill="#25acd8"/>
    <rect id="Rectangle_30" data-name="Rectangle 30" width="8.879" height="32.699" transform="translate(1211.479 4573.751)" fill="#25acd8"/>
    <path id="Path_4" data-name="Path 4" d="M4568.579,4656.051h1.655q4.629,0,4.63-4.093,0-3.378-4.541-3.377h-1.745Zm0,6.643v11.9h-8.834v-32.7h10.713q13.33,0,13.331,9.662,0,5.681-5.547,8.79l9.528,14.247h-10.02l-6.934-11.9Z" transform="translate(-3332.319 -68.142)" fill="#25acd8"/>
    <path id="Path_5" data-name="Path 5" d="M5156.356,4657.862q0-4.5-1.778-6.665a6.578,6.578,0,0,0-5.4-2.17H5146.6v18.317h1.969q4.025,0,5.9-2.336t1.878-7.146m9.171-.313q0,8.185-4.507,12.614t-12.67,4.428h-10.579v-32.7h11.317q7.872,0,12.156,4.026t4.283,11.631" transform="translate(-3879.346 -68.141)" fill="#25acd8"/>
    <path id="Path_6" data-name="Path 6" d="M5784.014,4674.6H5764.6v-32.7h19.414v7.089h-10.579v5.145h9.8v7.09h-9.8v6.173h10.579Z" transform="translate(-4472.56 -68.146)" fill="#25acd8"/>
    <path id="Path_7" data-name="Path 7" d="M6187.618,4658.845l-1.409-5.368q-.491-1.789-1.2-4.629t-.928-4.071q-.2,1.141-.795,3.757t-2.627,10.311Zm3.444,13.375-1.609-6.128h-10.625l-1.654,6.128h-9.708l10.669-32.833h11.787l10.8,32.833Z" transform="translate(-4853.82 -65.769)" fill="#25acd8"/>
    <path id="Path_8" data-name="Path 8" d="M6853.5,4674.6v-32.7h8.835v25.564h12.592v7.135Z" transform="translate(-5503.063 -68.146)" fill="#25acd8"/>
    <rect id="Rectangle_31" data-name="Rectangle 31" width="4.295" height="20.255" transform="translate(1152.544 4620.243)" fill="#1a1b1b"/>
    <path id="Path_9" data-name="Path 9" d="M3330.1,5529.074h-5.458l-8.812-15.322h-.124q.263,4.059.263,5.791v9.532h-3.837V5508.82h5.417l8.8,15.17h.1q-.208-3.948-.208-5.583v-9.587h3.865Z" transform="translate(-2151.617 -888.576)" fill="#1a1b1b"/>
    <path id="Path_10" data-name="Path 10" d="M3688.666,5529.074h-4.295v-16.681h-5.5v-3.574h15.294v3.574h-5.5Z" transform="translate(-2498.686 -888.576)" fill="#1a1b1b"/>
    <path id="Path_11" data-name="Path 11" d="M4007.4,5529.074h-11.666V5508.82H4007.4v3.519h-7.371v4.448h6.858v3.52h-6.858v5.222h7.371Z" transform="translate(-2798.553 -888.576)" fill="#1a1b1b"/>
    <path id="Path_12" data-name="Path 12" d="M4269.878,5517.81h1.386a5.3,5.3,0,0,0,3.006-.679,2.424,2.424,0,0,0,.97-2.133,2.215,2.215,0,0,0-.991-2.05,6,6,0,0,0-3.068-.61h-1.3Zm0,3.491v7.773h-4.3v-20.255h5.9q4.129,0,6.11,1.5a5.993,5.993,0,0,1,1,7.745,6.506,6.506,0,0,1-2.784,2.181q4.572,6.831,5.957,8.826H4277l-4.835-7.772Z" transform="translate(-3053.933 -888.575)" fill="#1a1b1b"/>
    <path id="Path_13" data-name="Path 13" d="M4606.372,5529.074h-5.458l-8.811-15.322h-.125q.264,4.059.263,5.791v9.532H4588.4V5508.82h5.417l8.8,15.17h.1q-.207-3.948-.207-5.583v-9.587h3.865Z" transform="translate(-3359.441 -888.576)" fill="#1a1b1b"/>
    <path id="Path_14" data-name="Path 14" d="M4957,5519.188q-2.036-6.553-2.292-7.412t-.367-1.358q-.457,1.773-2.619,8.77Zm2.494,8.423-1.469-4.821h-7.385l-1.469,4.821h-4.627l7.149-20.338h5.251l7.176,20.338Z" transform="translate(-3696.478 -887.112)" fill="#1a1b1b"/>
    <path id="Path_15" data-name="Path 15" d="M5303.506,5529.074h-4.3v-16.681h-5.5v-3.574h15.294v3.574h-5.5Z" transform="translate(-4026.924 -888.576)" fill="#1a1b1b"/>
    <rect id="Rectangle_32" data-name="Rectangle 32" width="4.295" height="20.255" transform="translate(1283.781 4620.243)" fill="#1a1b1b"/>
    <path id="Path_16" data-name="Path 16" d="M6332.153,5529.074h-5.459l-8.811-15.322h-.125q.263,4.059.263,5.791v9.532h-3.837V5508.82h5.417l8.8,15.17h.1q-.208-3.948-.208-5.583v-9.587h3.865Z" transform="translate(-4992.67 -888.576)" fill="#1a1b1b"/>
    <path id="Path_17" data-name="Path 17" d="M6682.766,5519.188q-2.038-6.553-2.293-7.412t-.367-1.358q-.457,1.773-2.619,8.77Zm2.493,8.423-1.469-4.821h-7.384l-1.469,4.821h-4.627l7.149-20.338h5.251l7.177,20.338Z" transform="translate(-5329.697 -887.112)" fill="#1a1b1b"/>
    <path id="Path_18" data-name="Path 18" d="M7056.43,5529.074V5508.82h4.295v16.708h8.215v3.547Z" transform="translate(-5695.109 -888.576)" fill="#1a1b1b"/>
    <path id="Path_19" data-name="Path 19" d="M5774.5,5485.024a13.073,13.073,0,0,0-10.088,8.567,11.189,11.189,0,0,0-.651,3.854,10.938,10.938,0,0,0,.557,4.335,11.686,11.686,0,0,0,2.173,4.015,1.089,1.089,0,0,0,1.455-.331c.236-.463.16-.821-.331-1.587a10.213,10.213,0,0,1-1.19-2.38,8.849,8.849,0,0,1-.585-4,9.607,9.607,0,0,1,.868-4.042,11.459,11.459,0,0,1,5.63-5.611,10.886,10.886,0,0,1,14.613,13.574,10.964,10.964,0,0,1-8.369,7.131,13.975,13.975,0,0,1-1.946.143c-2.513-.01-3.911-.567-4.572-1.833a2.9,2.9,0,0,1,.057-2.457l.3-.567-.312-.255a1.6,1.6,0,0,0-.368-.273,2.665,2.665,0,0,1-.444-.481l-.378-.483-.377.577a4.926,4.926,0,0,0-.274,5.034,5.9,5.9,0,0,0,2.173,2.05,8.117,8.117,0,0,0,3.807.738,10.993,10.993,0,0,0,4.364-.548,12.974,12.974,0,0,0,8.851-10.315,13.333,13.333,0,0,0-.463-6.083,13,13,0,0,0-9.181-8.548,9.112,9.112,0,0,0-2.862-.322,13.334,13.334,0,0,0-2.456.1" transform="translate(-4471.745 -865.953)" fill="#1a1b1b" fill-rule="evenodd"/>
    <path id="Path_20" data-name="Path 20" d="M6009.292,5603.174c-.5.463-1.086,1.011-1.285,1.229l-.378.377.567.6c.3.331.577.6.6.624a19.808,19.808,0,0,0,2.606-2.588.841.841,0,0,0-.831-1.076c-.321,0-.462.085-1.285.84" transform="translate(-4702.556 -977.075)" fill="#1a1b1b" fill-rule="evenodd"/>
    <path id="Path_21" data-name="Path 21" d="M5955.746,5634.266a.725.725,0,0,0-.235.567c0,.3.112.453,1.01,1.4.557.585,1.86,1.945,2.909,3.041s2.041,2.145,2.229,2.333c.275.283.417.358.69.358a.781.781,0,0,0,.813-.8c0-.312-.179-.529-2.295-2.768-4.269-4.506-4.127-4.364-4.535-4.364a.721.721,0,0,0-.585.236" transform="translate(-4653.231 -1007.07)" fill="#1a1b1b" fill-rule="evenodd"/>
    <path id="Path_22" data-name="Path 22" d="M6067.184,5660.762a23.755,23.755,0,0,0-2.494,2.371,5.555,5.555,0,0,0,1.162,1.19,21.964,21.964,0,0,0,2.5-2.428.856.856,0,0,0-1.171-1.133" transform="translate(-4756.556 -1032.263)" fill="#1a1b1b" fill-rule="evenodd"/>
    <path id="Path_23" data-name="Path 23" d="M5897.117,5665.044c-2.787,2.7-2.211,7.92,2.183,8.411,1.834.205,3.208-.739,4.467-1.939l.916-.879-.822-.851c-.462-.472-1.889-1.974-3.183-3.334s-2.371-2.475-2.409-2.475-.548.482-1.152,1.067" transform="translate(-4596.36 -1035.412)" fill="#1a1b1b" fill-rule="evenodd"/>
    <path id="Path_24" data-name="Path 24" d="M1038.59,4617.861l47.469-47.971,12.719,12.05-27.836,27.9,40.607,40.779-19.138,20.392-53.821-53.153Z" transform="translate(0 -12)" fill="#25acd8"/>
    <path id="Path_25" data-name="Path 25" d="M1982.95,4908.043l10.614,10.948,16.631-16.3-11.7-11.784Z" transform="translate(-893.715 -315.805)" fill="#1a1b1b"/>
    <path id="Path_26" data-name="Path 26" d="M2303.98,5233.955l17.634,17.718,15.628-15.628-18.135-17.885Z" transform="translate(-1197.529 -625.503)" fill="#1a1b1b"/>
  </g>
</svg>
