<?xml version="1.0" encoding="UTF-8" standalone="no"?><!DOCTYPE svg PUBLIC "-//W3C//DTD SVG 1.1//EN" "http://www.w3.org/Graphics/SVG/1.1/DTD/svg11.dtd"><svg width="100%" height="100%" viewBox="0 0 1863 562" version="1.1" xmlns="http://www.w3.org/2000/svg" xmlns:xlink="http://www.w3.org/1999/xlink" xml:space="preserve" xmlns:serif="http://www.serif.com/" style="fill-rule:evenodd;clip-rule:evenodd;stroke-linejoin:round;stroke-miterlimit:2;"><g id="Layer-1"><path id="Path_2" d="M686.856,269.8l-48.334,-0l0,-181.667l107.356,0l-0,39.384l-59.022,-0l-0,34.666l54.444,0l0,39.389l-54.444,0l-0,68.228Z" style="fill:#fff;fill-rule:nonzero;"/><path id="Path_3" d="M868.044,195.478l-7.827,-29.822c-1.819,-6.626 -4.041,-15.199 -6.667,-25.717c-2.626,-10.519 -4.344,-18.058 -5.156,-22.617c-0.74,4.226 -2.211,11.184 -4.411,20.872c-2.2,9.689 -7.066,28.784 -14.6,57.284l38.661,-0Zm19.139,74.305l-8.95,-34.044l-59.022,-0l-9.189,34.044l-53.933,0l59.3,-182.411l65.483,0l60,182.406l-53.689,0.005Z" style="fill:#fff;fill-rule:nonzero;"/><rect id="Rectangle_30" x="960.494" y="88.117" width="49.328" height="181.661" style="fill:#fff;"/><path id="Path_4" d="M1098.17,166.772l9.194,0c17.145,0 25.719,-7.579 25.722,-22.739c0,-12.511 -8.409,-18.764 -25.227,-18.761l-9.695,0l0.006,41.5Zm-0,36.906l-0,66.111l-49.078,-0l-0,-181.667l59.517,0c49.37,0 74.057,17.893 74.061,53.678c-0,21.041 -10.273,37.319 -30.817,48.833l52.933,79.15l-55.666,0l-38.523,-66.111l-12.427,0.006Z" style="fill:#fff;fill-rule:nonzero;"/><path id="Path_5" d="M1324.56,176.839c-0,-16.667 -3.293,-29.009 -9.878,-37.028c-7.577,-8.458 -18.678,-12.919 -30,-12.055l-14.322,-0l-0,101.761l10.938,-0c14.908,-0 25.834,-4.326 32.778,-12.978c6.945,-8.652 10.422,-21.885 10.434,-39.7m50.95,-1.739c-0,30.315 -8.347,53.674 -25.039,70.078c-16.693,16.403 -40.156,24.603 -70.389,24.6l-58.772,-0l-0,-181.667l62.872,0c29.155,0 51.666,7.456 67.533,22.367c15.867,14.911 23.798,36.45 23.795,64.616" style="fill:#fff;fill-rule:nonzero;"/><path id="Path_6" d="M1515.91,269.8l-107.855,-0l-0,-181.667l107.855,0l0,39.384l-58.772,-0l-0,28.583l54.444,0l0,39.389l-54.444,-0l-0,34.294l58.772,0l0,40.017Z" style="fill:#fff;fill-rule:nonzero;"/><path id="Path_7" d="M1640.04,195.478l-7.827,-29.822c-1.819,-6.626 -4.041,-15.199 -6.667,-25.717c-2.626,-10.519 -4.344,-18.058 -5.156,-22.617c-0.74,4.226 -2.213,11.184 -4.416,20.872c-2.204,9.689 -7.069,28.784 -14.595,57.284l38.661,-0Zm19.134,74.305l-8.939,-34.044l-59.028,-0l-9.189,34.044l-53.933,0l59.272,-182.405l65.483,-0l60,182.405l-53.666,0Z" style="fill:#fff;fill-rule:nonzero;"/><path id="Path_8" d="M1732.48,269.8l0,-181.667l49.084,0l-0,142.023l69.955,-0l0,39.638l-119.039,0.006Z" style="fill:#fff;fill-rule:nonzero;"/><rect id="Rectangle_31" x="633.078" y="346.406" width="23.861" height="112.528" style="fill:#1a1b1b;"/><path id="Path_9" d="M777.183,458.933l-30.322,0l-48.955,-85.122l-0.689,0c0.974,15.033 1.461,25.758 1.461,32.172l-0,52.956l-21.317,-0l0,-112.528l30.095,0l48.888,84.278l0.556,-0c-0.77,-14.622 -1.156,-24.961 -1.156,-31.017l0,-53.261l21.473,0l-0.034,112.522Z" style="fill:#1a1b1b;fill-rule:nonzero;"/><path id="Path_10" d="M841.056,458.933l-23.862,0l0,-92.672l-30.555,0l-0,-19.855l84.967,-0l-0,19.855l-30.556,0l0.006,92.672Z" style="fill:#1a1b1b;fill-rule:nonzero;"/><path id="Path_11" d="M945.872,458.933l-64.811,0l0,-112.522l64.811,0l0,19.55l-40.95,0l0,24.711l38.1,0l0,19.556l-38.1,-0l0,29.011l40.95,-0l0,19.694Z" style="fill:#1a1b1b;fill-rule:nonzero;"/><path id="Path_12" d="M985.306,396.361l7.7,0c5.816,0.425 11.63,-0.889 16.7,-3.772c3.709,-2.759 5.747,-7.242 5.388,-11.85c0.406,-4.515 -1.715,-8.902 -5.505,-11.389c-5.282,-2.617 -11.164,-3.786 -17.045,-3.389l-7.222,0l-0.016,30.4Zm-0,19.395l-0,43.183l-23.889,-0l-0,-112.528l32.777,0c15.293,0 26.608,2.778 33.945,8.333c12.171,10.954 14.546,29.342 5.555,43.028c-3.937,5.389 -9.291,9.584 -15.466,12.117c16.933,25.3 27.965,41.644 33.094,49.033l-26.45,0l-26.861,-43.178l-12.705,0.012Z" style="fill:#1a1b1b;fill-rule:nonzero;"/><path id="Path_13" d="M1157.45,458.933l-30.322,0l-48.95,-85.122l-0.695,0c0.978,15.033 1.465,25.758 1.461,32.172l0,52.956l-21.338,-0l-0,-112.528l30.094,0l48.889,84.278l0.555,-0c-0.766,-14.622 -1.15,-24.961 -1.15,-31.017l0,-53.261l21.473,0l-0.017,112.522Z" style="fill:#1a1b1b;fill-rule:nonzero;"/><path id="Path_14" d="M1232.96,412.144c-7.541,-24.27 -11.786,-37.996 -12.734,-41.177c-0.948,-3.182 -1.628,-5.697 -2.039,-7.545c-1.692,6.567 -6.542,22.808 -14.55,48.722l29.323,0Zm13.855,46.795l-8.161,-26.783l-41.028,-0l-8.161,26.783l-25.705,-0l39.716,-112.989l29.172,0l39.867,112.989l-25.7,-0Z" style="fill:#1a1b1b;fill-rule:nonzero;"/><path id="Path_15" d="M1322.18,458.933l-23.889,0l-0,-92.672l-30.556,0l0,-19.855l84.967,-0l-0,19.855l-30.556,0l0.034,92.672Z" style="fill:#1a1b1b;fill-rule:nonzero;"/><rect id="Rectangle_32" x="1362.17" y="346.406" width="23.861" height="112.528" style="fill:#1a1b1b;"/><path id="Path_16" d="M1671.63,458.933l-30.328,0l-48.95,-85.122l-0.694,0c0.974,15.033 1.461,25.758 1.461,32.172l-0,52.956l-21.317,-0l0,-112.528l30.094,0l48.889,84.278l0.556,-0c-0.77,-14.622 -1.156,-24.961 -1.156,-31.017l0,-53.261l21.473,0l-0.028,112.522Z" style="fill:#1a1b1b;fill-rule:nonzero;"/><path id="Path_17" d="M1747.11,412.144c-7.549,-24.27 -11.795,-37.996 -12.739,-41.177c-0.945,-3.182 -1.624,-5.697 -2.039,-7.545c-1.693,6.567 -6.543,22.808 -14.55,48.722l29.328,0Zm13.85,46.795l-8.162,-26.783l-41.022,-0l-8.161,26.783l-25.705,-0l39.716,-112.989l29.172,0l39.873,112.989l-25.711,-0Z" style="fill:#1a1b1b;fill-rule:nonzero;"/><path id="Path_18" d="M1792.95,458.933l-0,-112.522l23.861,0l0,92.822l45.639,0l-0,19.706l-69.5,-0.006Z" style="fill:#1a1b1b;fill-rule:nonzero;"/><path id="Path_19" d="M1467.58,339.894c-25.891,4.532 -47.378,22.78 -56.044,47.595c-2.453,6.869 -3.677,14.117 -3.617,21.411c-0.599,8.154 0.454,16.346 3.095,24.083c2.518,8.157 6.621,15.737 12.072,22.306c2.741,1.61 6.308,0.799 8.083,-1.839c1.311,-2.572 0.889,-4.561 -1.839,-8.817c-2.771,-4.1 -4.993,-8.545 -6.611,-13.222c-2.783,-7.057 -3.896,-14.663 -3.25,-22.222c-0.041,-7.746 1.605,-15.409 4.822,-22.456c6.372,-13.786 17.47,-24.847 31.278,-31.172c7.601,-3.3 15.8,-5.003 24.086,-5.003c33.177,-0 60.478,27.3 60.478,60.478c0,6.788 -1.143,13.528 -3.38,19.936c-7.269,20.558 -25.044,35.703 -46.495,39.617c-3.581,0.516 -7.193,0.782 -10.811,0.794c-13.961,-0.055 -21.728,-3.15 -25.4,-10.183c-1.922,-4.369 -1.806,-9.374 0.317,-13.65l1.666,-3.15l-1.733,-1.417c-0.605,-0.601 -1.294,-1.111 -2.044,-1.516c-0.929,-0.786 -1.758,-1.684 -2.467,-2.673l-2.1,-2.683l-2.095,3.206c-5.593,8.325 -6.178,19.083 -1.522,27.966c2.98,4.769 7.138,8.692 12.072,11.389c6.615,3.055 13.873,4.462 21.15,4.1c8.204,0.629 16.451,-0.407 24.245,-3.044c25.846,-8.288 44.906,-30.501 49.172,-57.306c1.766,-11.311 0.885,-22.88 -2.572,-33.794c-7.727,-23.503 -27.011,-41.459 -51.006,-47.489c-5.171,-1.436 -10.538,-2.039 -15.9,-1.789c-4.555,-0.235 -9.123,-0.049 -13.644,0.556" style="fill:#1a1b1b;"/><path id="Path_20" d="M1489.7,378.939c-2.778,2.572 -6.033,5.617 -7.139,6.828l-2.1,2.094l3.15,3.333c1.667,1.839 3.206,3.334 3.333,3.467c5.261,-4.334 10.108,-9.147 14.478,-14.378c0.124,-0.424 0.187,-0.865 0.187,-1.307c-0,-2.563 -2.109,-4.672 -4.672,-4.672c-0.044,-0 -0.088,0 -0.131,0.002c-1.784,-0 -2.567,0.472 -7.139,4.666" style="fill:#1a1b1b;"/><path id="Path_21" d="M1466.25,385.033c-0.88,0.805 -1.358,1.96 -1.306,3.15c0,1.667 0.623,2.517 5.612,7.778c3.094,3.25 10.333,10.806 16.161,16.895c5.827,6.088 11.339,11.916 12.383,12.961c1.528,1.572 2.317,1.989 3.833,1.989c0.06,0.002 0.12,0.003 0.179,0.003c2.381,0 4.339,-1.958 4.339,-4.339c0,-0.036 -0,-0.072 -0.001,-0.109c0,-1.733 -0.994,-2.939 -12.75,-15.378c-23.717,-25.033 -22.928,-24.244 -25.194,-24.244c-1.227,-0.085 -2.426,0.399 -3.25,1.311" style="fill:#1a1b1b;"/><path id="Path_22" d="M1511.32,392.272c-4.931,4.05 -9.561,8.453 -13.855,13.172c1.808,2.516 3.984,4.744 6.455,6.612c4.98,-4.122 9.624,-8.632 13.889,-13.489c0.321,-0.653 0.488,-1.371 0.488,-2.099c0,-2.609 -2.147,-4.755 -4.755,-4.755c-0.781,-0 -1.55,0.192 -2.238,0.559" style="fill:#1a1b1b;"/><path id="Path_23" d="M1456.48,398.567c-15.483,15 -12.283,44 12.128,46.727c10.189,1.139 17.822,-4.105 24.817,-10.772l5.089,-4.883l-4.567,-4.728c-2.567,-2.622 -10.494,-10.967 -17.683,-18.522c-7.189,-7.556 -13.173,-13.75 -13.384,-13.75c-0.211,-0 -3.044,2.678 -6.4,5.928" style="fill:#1a1b1b;"/><path id="Path_24" d="M0,266.506l263.717,-266.506l70.661,66.944l-154.645,155l225.595,226.55l-106.322,113.289l-299.006,-295.294l0,0.017Z" style="fill:#fff;fill-rule:nonzero;"/><path id="Path_25" d="M281.361,190.822l58.967,60.822l92.394,-90.555l-65,-65.467l-86.361,95.2Z" style="fill:#1a1b1b;fill-rule:nonzero;"/><path id="Path_26" d="M377.006,280.9l97.966,98.433l86.822,-86.822l-100.75,-99.361l-84.038,87.75Z" style="fill:#1a1b1b;fill-rule:nonzero;"/></g></svg>